<svg xmlns="http://www.w3.org/2000/svg" width="32.68mm" height="41.7mm" viewBox="0 0 92.62 118.2">
  <defs>
    <style>.a{fill:#dcdddd;}.b{fill:#88c4ec;}.c{fill:#9dc815;}</style>
  </defs>
  <path class="a" d="M74.23,76.67l.6.15-1.94,2.85Z"/>
  <path class="a" d="M92.62,50.63,80.18,69c-.19-.66-.4-1.3-.63-1.91v0c-.17-.39-.33-.79-.5-1.19l6.75-15.2Z"/>
  <path class="a" d="M71.71,75.57c.29.15.58.3.86.43l-1.79,4Z"/>
  <path class="a" d="M83.85,50.63,78,63.7a42.31,42.31,0,0,0-2.84-4.8l1.73-8.27Z"/>
  <path class="a" d="M70.07,74.71,67.32,87.88,49,114.92l6.13-22.61,9.76-18.92,1.69,0A9.15,9.15,0,0,1,70.07,74.71Z"/>
  <path class="a"
        d="M63.77,71.61l-3.65,1.73,2.74,0L56.34,86l4.14-21c.88.63,1.6,1.15,2.12,1.51s.91.64.91.64l.14.1,1.19,2.3Z"/>
  <path class="a" d="M74.6,50.63l-2.3,4.45a50.73,50.73,0,0,0-4.21-4.45Z"/>
  <path class="a" d="M58.89,63.82,54.26,87.28l-6-31.67L49.89,57C53.2,59.58,56.42,62,58.89,63.82Z"/>
  <polygon class="a" points="53.33 91.94 46.21 118.2 39.1 91.94 46.21 54.51 53.33 91.94"/>
  <path class="a" d="M44.74,52.69,38.16,87.28,30.94,50.63H42.39C43.16,51.32,43.94,52,44.74,52.69Z"/>
  <polygon class="a" points="36.09 85.98 17.83 50.63 29.12 50.63 36.09 85.98"/>
  <polygon class="b" points="43.47 114.88 25.07 87.68 18.37 55.55 37.35 92.31 43.47 114.88"/>
  <polygon class="a" points="21.71 80.33 8.23 50.63 15.52 50.63 21.71 80.33"/>
  <polygon class="a" points="19.05 78.79 0 50.63 6.27 50.63 19.05 78.79"/>
  <polygon class="b" points="15.89 34.29 6.36 48.84 0.55 48.84 15.89 34.29"/>
  <polygon class="a" points="19.03 32.75 18.83 33.76 15.76 48.84 8.5 48.84 18.5 33.57 19.03 32.75"/>
  <polygon class="a" points="31.2 41.09 29.16 48.84 18.47 48.84 27.86 39.11 31.2 41.09"/>
  <polygon class="a" points="33.16 33.61 31.47 40.04 28.88 38.04 33.16 33.61"/>
  <path class="a" d="M35.8,42.66l.21.89-3-2.32,2.2-8.4L40,40.93c-1.66.65-3.39,1.36-4.14,1.71Z"/>
  <path class="a" d="M40.46,48.84H31L32.8,42l3,1.75.09.11A48.55,48.55,0,0,0,40.46,48.84Z"/>
  <path class="a" d="M60.32,44.66a38.25,38.25,0,0,0-7.86-3.76l4.76-8.07Z"/>
  <path class="a" d="M74,48.84H66.07c-1.14-1-2.32-1.87-3.51-2.7L59.27,33.61Z"/>
  <path class="a" d="M66.07,48.84h-2.8l-.71-2.7C63.75,47,64.93,47.87,66.07,48.84Z"/>
  <polygon class="a" points="83.59 48.84 76.67 48.84 73.42 32.9 83.59 48.84"/>
  <polygon class="a" points="92.06 48.84 85.71 48.84 76.21 33.95 92.06 48.84"/>
  <polygon class="b" points="74.42 46.75 58.44 30.18 58.83 19.69 61.03 19.69 70.78 28.84 74.42 46.75"/>
  <polygon class="a" points="57.04 19.69 56.72 28.4 48.31 19.69 57.04 19.69"/>
  <path class="a" d="M43.91,39.52l-.56.17c-.39.13-1,.34-1.67.6L36,30.66l2.47-2.56Z"/>
  <path class="a" d="M49,39.94l-.93-.14a19.94,19.94,0,0,0-2.86-.24h-.31L39,27.56l2.39-2.48Z"/>
  <path class="a" d="M56.42,30.66,50.7,40.37l-.37-.1-.25-.06L41.86,24.59h0l4.35-4.5Z"/>
  <polygon class="a" points="33.99 30.18 27.46 36.95 21.02 31.96 21.66 28.81 31.28 19.69 33.61 19.69 33.99 30.18"/>
  <polygon class="a" points="26.27 38.17 18 46.75 20.46 34.73 26.27 38.17"/>
  <path class="a" d="M45.14,50.63l-.4,2.06c-.8-.68-1.58-1.37-2.35-2.06Z"/>
  <path class="a" d="M66.07,48.84h-2.8l-.71-2.7C63.75,47,64.93,47.87,66.07,48.84Z"/>
  <polygon class="c" points="63.77 71.61 62.86 73.37 60.13 73.34 63.77 71.61"/>
  <path class="c"
        d="M50.7,40.37,46.21,48l-4.53-7.69c.69-.26,1.28-.47,1.67-.6l.56-.17L38.48,28.1l.52-.54,5.89,12h.31a19.94,19.94,0,0,1,2.86.24l.93.14-7.6-14.86.47-.49,8.22,15.62.25.06Z"/>
  <path class="c"
        d="M39.62,15.78A9.24,9.24,0,0,0,46,4.45c-.34-1.39-1-3.22-2.35-4A2.77,2.77,0,0,0,41.2.16c-.73.24-1.58,1.31-2.3,1.31H35.24L38.9,3V4.13s-6.07,6.32-7.59,10.24l-9.6,7,2.4,1.27,7.46-7.34c0,.05,3.58.85,4.64,1v3.42h-.82l.06,1.68,0,.4.24,6.63,1.95-2,.5-.52,2.37-2.45.46-.48,3.12-3.23H39.62Zm-1,3.91H37.22V16.25A8,8,0,0,0,38.61,16Z"/>
  <path class="c" d="M61.42,48.84H47.78l4.68-7.94a38.25,38.25,0,0,1,7.86,3.76h0Z"/>
  <path class="c"
        d="M44.65,48.84H40.46a48.55,48.55,0,0,1-4.62-5l-.09-.11L32.8,42l.21-.8,3,2.32-.21-.89.05,0c.75-.35,2.48-1.06,4.14-1.71Z"/>
  <polygon class="c" points="27.46 36.95 26.27 38.17 20.46 34.73 21.02 31.96 27.46 36.95"/>
  <polygon class="c" points="31.47 40.04 31.2 41.09 27.86 39.11 28.88 38.04 31.47 40.04"/>
  <path class="c" d="M61.49,50.63l-2.6,13.19c-2.47-1.82-5.69-4.24-9-6.87l-1.65-1.34-1-5Z"/>
  <path class="c"
        d="M72.3,55.08,64.84,69.53l-1.19-2.3-.14-.1s-.33-.22-.91-.64-1.24-.88-2.12-1.51l2.83-14.35h4.78A50.73,50.73,0,0,1,72.3,55.08Z"/>
  <path class="c" d="M73.77,56.93l-3.7,17.78a9.15,9.15,0,0,0-3.53-1.3l-1.69,0L73.52,56.6Z"/>
  <path class="c" d="M78,63.7,72.57,76c-.28-.13-.57-.28-.86-.43L75.19,58.9A42.31,42.31,0,0,1,78,63.7Z"/>
  <path class="c" d="M80.18,69l-5.35,7.87-.6-.15,4.82-10.84c.17.4.33.8.5,1.19v0C79.78,67.65,80,68.29,80.18,69Z"/>
</svg>
